# xmcd
#
# Track frame offsets:
#	150
#	15259
#	41174
#	57448
#	70708
#	84676
#	102817
#	117776
#	139994
#	156317
#	176709
#	197392
#	214640
#	238975
#
# Disc length: 3419 seconds
#
# Revision: 1
# Processed by: cddbd v1.5.1PL0 Copyright (c) Steve Scherf et al.
# Submitted via: audiograbber 1.83.01
#
DISCID=c00d590e
DTITLE=Sonny Rhodes - The Best of Sonny Rhodes, Vol. 1
DYEAR=2005
DGENRE=Blues
TTITLE0=Ain't  No Blues in Town
TTITLE1=House without Love
TTITLE2=Blue Funky Down
TTITLE3=Are We Losing Our Thing?
TTITLE4=You Can Look For Me
TTITLE5=The Things That I Used To Do
TTITLE6=Meet Me at the 10th Street Inn
TTITLE7=Waggin' My Tail
TTITLE8=Lifetime Thing
TTITLE9=Trying to Make A Comeback For Myself
TTITLE10=Shame on You
TTITLE11=Woman Abuse
TTITLE12=I Told You So
TTITLE13=Ain't Nothin' But The Blues
EXTD=
EXTT0=
EXTT1=
EXTT2=
EXTT3=
EXTT4=
EXTT5=
EXTT6=
EXTT7=
EXTT8=
EXTT9=
EXTT10=
EXTT11=
EXTT12=
EXTT13=
PLAYORDER=
